<svg width="1440" height="1800" viewBox="0 0 1440 1800" fill="none" xmlns="http://www.w3.org/2000/svg">
<g clip-path="url(#clip0)">
<rect width="1440" height="1800" fill="white"/>
<path d="M213.5 199.724C38.5814 210.09 -1 259.523 -1 259.523V736.181C-1 736.181 197.928 780.447 326.727 779.943C529.952 779.149 799.608 798.966 1002.2 779.943C1237.54 757.844 1442 698.332 1442 698.332V222.265C1442 222.265 1301.94 192.054 1204.84 184.417C1047.29 172.026 879.392 244.59 722 259.523C565.055 274.413 370.752 190.405 213.5 199.724Z" fill="#F1FAFF"/>
<path d="M1187.23 778.727C1189.55 778.727 1191.49 779.425 1193.03 780.822C1194.57 782.19 1195.34 783.95 1195.34 786.103C1195.34 788.257 1194.57 790.032 1193.03 791.429C1191.49 792.796 1189.55 793.48 1187.23 793.48C1184.87 793.48 1182.92 792.782 1181.38 791.385C1179.86 789.988 1179.11 788.228 1179.11 786.103C1179.11 783.979 1179.86 782.219 1181.38 780.822C1182.92 779.425 1184.87 778.727 1187.23 778.727Z" fill="#00387A"/>
<path d="M1233.25 778.727C1235.58 778.727 1237.51 779.425 1239.05 780.822C1240.6 782.19 1241.37 783.95 1241.37 786.103C1241.37 788.257 1240.6 790.032 1239.05 791.429C1237.51 792.796 1235.58 793.48 1233.25 793.48C1230.89 793.48 1228.94 792.782 1227.4 791.385C1225.89 789.988 1225.13 788.228 1225.13 786.103C1225.13 783.979 1225.89 782.219 1227.4 780.822C1228.94 779.425 1230.89 778.727 1233.25 778.727Z" fill="#00387A"/>
<path d="M1279.27 778.727C1281.6 778.727 1283.53 779.425 1285.08 780.822C1286.62 782.19 1287.39 783.95 1287.39 786.103C1287.39 788.257 1286.62 790.032 1285.08 791.429C1283.53 792.796 1281.6 793.48 1279.27 793.48C1276.91 793.48 1274.96 792.782 1273.42 791.385C1271.91 789.988 1271.15 788.228 1271.15 786.103C1271.15 783.979 1271.91 782.219 1273.42 780.822C1274.96 779.425 1276.91 778.727 1279.27 778.727Z" fill="#00387A"/>
<path d="M1325.29 778.727C1327.62 778.727 1329.56 779.425 1331.1 780.822C1332.64 782.19 1333.41 783.95 1333.41 786.103C1333.41 788.257 1332.64 790.032 1331.1 791.429C1329.56 792.796 1327.62 793.48 1325.29 793.48C1322.94 793.48 1320.99 792.782 1319.44 791.385C1317.93 789.988 1317.17 788.228 1317.17 786.103C1317.17 783.979 1317.93 782.219 1319.44 780.822C1320.99 779.425 1322.94 778.727 1325.29 778.727Z" fill="#00387A"/>
<path d="M1371.32 778.727C1373.64 778.727 1375.58 779.425 1377.12 780.822C1378.66 782.19 1379.43 783.95 1379.43 786.103C1379.43 788.257 1378.66 790.032 1377.12 791.429C1375.58 792.796 1373.64 793.48 1371.32 793.48C1368.96 793.48 1367.01 792.782 1365.47 791.385C1363.95 789.988 1363.2 788.228 1363.2 786.103C1363.2 783.979 1363.95 782.219 1365.47 780.822C1367.01 779.425 1368.96 778.727 1371.32 778.727Z" fill="#00387A"/>
<path d="M1417.34 778.727C1419.67 778.727 1421.6 779.425 1423.14 780.822C1424.69 782.19 1425.46 783.95 1425.46 786.103C1425.46 788.257 1424.69 790.032 1423.14 791.429C1421.6 792.796 1419.67 793.48 1417.34 793.48C1414.98 793.48 1413.03 792.782 1411.49 791.385C1409.98 789.988 1409.22 788.228 1409.22 786.103C1409.22 783.979 1409.98 782.219 1411.49 780.822C1413.03 779.425 1414.98 778.727 1417.34 778.727Z" fill="#00387A"/>
<path d="M1187.23 829.39C1189.55 829.39 1191.49 830.088 1193.03 831.485C1194.57 832.852 1195.34 834.613 1195.34 836.766C1195.34 838.92 1194.57 840.695 1193.03 842.091C1191.49 843.459 1189.55 844.143 1187.23 844.143C1184.87 844.143 1182.92 843.445 1181.38 842.048C1179.86 840.651 1179.11 838.891 1179.11 836.766C1179.11 834.642 1179.86 832.882 1181.38 831.485C1182.92 830.088 1184.87 829.39 1187.23 829.39Z" fill="#00387A"/>
<path d="M1233.25 829.39C1235.58 829.39 1237.51 830.088 1239.05 831.485C1240.6 832.852 1241.37 834.613 1241.37 836.766C1241.37 838.92 1240.6 840.695 1239.05 842.091C1237.51 843.459 1235.58 844.143 1233.25 844.143C1230.89 844.143 1228.94 843.445 1227.4 842.048C1225.89 840.651 1225.13 838.891 1225.13 836.766C1225.13 834.642 1225.89 832.882 1227.4 831.485C1228.94 830.088 1230.89 829.39 1233.25 829.39Z" fill="#00387A"/>
<path d="M1279.27 829.39C1281.6 829.39 1283.53 830.088 1285.08 831.485C1286.62 832.852 1287.39 834.613 1287.39 836.766C1287.39 838.92 1286.62 840.695 1285.08 842.091C1283.53 843.459 1281.6 844.143 1279.27 844.143C1276.91 844.143 1274.96 843.445 1273.42 842.048C1271.91 840.651 1271.15 838.891 1271.15 836.766C1271.15 834.642 1271.91 832.882 1273.42 831.485C1274.96 830.088 1276.91 829.39 1279.27 829.39Z" fill="#00387A"/>
<path d="M1325.29 829.39C1327.62 829.39 1329.56 830.088 1331.1 831.485C1332.64 832.852 1333.41 834.613 1333.41 836.766C1333.41 838.92 1332.64 840.695 1331.1 842.091C1329.56 843.459 1327.62 844.143 1325.29 844.143C1322.94 844.143 1320.99 843.445 1319.44 842.048C1317.93 840.651 1317.17 838.891 1317.17 836.766C1317.17 834.642 1317.93 832.882 1319.44 831.485C1320.99 830.088 1322.94 829.39 1325.29 829.39Z" fill="#00387A"/>
<path d="M1371.32 829.39C1373.64 829.39 1375.58 830.088 1377.12 831.485C1378.66 832.852 1379.43 834.613 1379.43 836.766C1379.43 838.92 1378.66 840.695 1377.12 842.091C1375.58 843.459 1373.64 844.143 1371.32 844.143C1368.96 844.143 1367.01 843.445 1365.47 842.048C1363.95 840.651 1363.2 838.891 1363.2 836.766C1363.2 834.642 1363.95 832.882 1365.47 831.485C1367.01 830.088 1368.96 829.39 1371.32 829.39Z" fill="#00387A"/>
<path d="M1417.34 829.39C1419.67 829.39 1421.6 830.088 1423.14 831.485C1424.69 832.852 1425.46 834.613 1425.46 836.766C1425.46 838.92 1424.69 840.695 1423.14 842.091C1421.6 843.459 1419.67 844.143 1417.34 844.143C1414.98 844.143 1413.03 843.445 1411.49 842.048C1409.98 840.651 1409.22 838.891 1409.22 836.766C1409.22 834.642 1409.98 832.882 1411.49 831.485C1413.03 830.088 1414.98 829.39 1417.34 829.39Z" fill="#00387A"/>
<path d="M1187.23 880.052C1189.55 880.052 1191.49 880.751 1193.03 882.148C1194.57 883.515 1195.34 885.276 1195.34 887.429C1195.34 889.582 1194.57 891.358 1193.03 892.754C1191.49 894.122 1189.55 894.806 1187.23 894.806C1184.87 894.806 1182.92 894.107 1181.38 892.711C1179.86 891.314 1179.11 889.553 1179.11 887.429C1179.11 885.305 1179.86 883.544 1181.38 882.148C1182.92 880.751 1184.87 880.052 1187.23 880.052Z" fill="#00387A"/>
<path d="M1233.25 880.052C1235.58 880.052 1237.51 880.751 1239.05 882.148C1240.6 883.515 1241.37 885.276 1241.37 887.429C1241.37 889.582 1240.6 891.358 1239.05 892.754C1237.51 894.122 1235.58 894.806 1233.25 894.806C1230.89 894.806 1228.94 894.107 1227.4 892.711C1225.89 891.314 1225.13 889.553 1225.13 887.429C1225.13 885.305 1225.89 883.544 1227.4 882.148C1228.94 880.751 1230.89 880.052 1233.25 880.052Z" fill="#00387A"/>
<path d="M1279.27 880.052C1281.6 880.052 1283.53 880.751 1285.08 882.148C1286.62 883.515 1287.39 885.276 1287.39 887.429C1287.39 889.582 1286.62 891.358 1285.08 892.754C1283.53 894.122 1281.6 894.806 1279.27 894.806C1276.91 894.806 1274.96 894.107 1273.42 892.711C1271.91 891.314 1271.15 889.553 1271.15 887.429C1271.15 885.305 1271.91 883.544 1273.42 882.148C1274.96 880.751 1276.91 880.052 1279.27 880.052Z" fill="#00387A"/>
<path d="M1325.29 880.052C1327.62 880.052 1329.56 880.751 1331.1 882.148C1332.64 883.515 1333.41 885.276 1333.41 887.429C1333.41 889.582 1332.64 891.358 1331.1 892.754C1329.56 894.122 1327.62 894.806 1325.29 894.806C1322.94 894.806 1320.99 894.107 1319.44 892.711C1317.93 891.314 1317.17 889.553 1317.17 887.429C1317.17 885.305 1317.93 883.544 1319.44 882.148C1320.99 880.751 1322.94 880.052 1325.29 880.052Z" fill="#00387A"/>
<path d="M1371.32 880.052C1373.64 880.052 1375.58 880.751 1377.12 882.148C1378.66 883.515 1379.43 885.276 1379.43 887.429C1379.43 889.582 1378.66 891.358 1377.12 892.754C1375.58 894.122 1373.64 894.806 1371.32 894.806C1368.96 894.806 1367.01 894.107 1365.47 892.711C1363.95 891.314 1363.2 889.553 1363.2 887.429C1363.2 885.305 1363.95 883.544 1365.47 882.148C1367.01 880.751 1368.96 880.052 1371.32 880.052Z" fill="#00387A"/>
<path d="M1417.34 880.052C1419.67 880.052 1421.6 880.751 1423.14 882.148C1424.69 883.515 1425.46 885.276 1425.46 887.429C1425.46 889.582 1424.69 891.358 1423.14 892.754C1421.6 894.122 1419.67 894.806 1417.34 894.806C1414.98 894.806 1413.03 894.107 1411.49 892.711C1409.98 891.314 1409.22 889.553 1409.22 887.429C1409.22 885.305 1409.98 883.544 1411.49 882.148C1413.03 880.751 1414.98 880.052 1417.34 880.052Z" fill="#00387A"/>
<path d="M1187.23 930.715C1189.55 930.715 1191.49 931.414 1193.03 932.81C1194.57 934.178 1195.34 935.939 1195.34 938.092C1195.34 940.245 1194.57 942.02 1193.03 943.417C1191.49 944.785 1189.55 945.469 1187.23 945.469C1184.87 945.469 1182.92 944.77 1181.38 943.374C1179.86 941.977 1179.11 940.216 1179.11 938.092C1179.11 935.968 1179.86 934.207 1181.38 932.81C1182.92 931.414 1184.87 930.715 1187.23 930.715Z" fill="#00387A"/>
<path d="M1233.25 930.715C1235.58 930.715 1237.51 931.414 1239.05 932.81C1240.6 934.178 1241.37 935.939 1241.37 938.092C1241.37 940.245 1240.6 942.02 1239.05 943.417C1237.51 944.785 1235.58 945.469 1233.25 945.469C1230.89 945.469 1228.94 944.77 1227.4 943.374C1225.89 941.977 1225.13 940.216 1225.13 938.092C1225.13 935.968 1225.89 934.207 1227.4 932.81C1228.94 931.414 1230.89 930.715 1233.25 930.715Z" fill="#00387A"/>
<path d="M1279.27 930.715C1281.6 930.715 1283.53 931.414 1285.08 932.81C1286.62 934.178 1287.39 935.939 1287.39 938.092C1287.39 940.245 1286.62 942.02 1285.08 943.417C1283.53 944.785 1281.6 945.469 1279.27 945.469C1276.91 945.469 1274.96 944.77 1273.42 943.374C1271.91 941.977 1271.15 940.216 1271.15 938.092C1271.15 935.968 1271.91 934.207 1273.42 932.81C1274.96 931.414 1276.91 930.715 1279.27 930.715Z" fill="#00387A"/>
<path d="M1325.29 930.715C1327.62 930.715 1329.56 931.414 1331.1 932.81C1332.64 934.178 1333.41 935.939 1333.41 938.092C1333.41 940.245 1332.64 942.02 1331.1 943.417C1329.56 944.785 1327.62 945.469 1325.29 945.469C1322.94 945.469 1320.99 944.77 1319.44 943.374C1317.93 941.977 1317.17 940.216 1317.17 938.092C1317.17 935.968 1317.93 934.207 1319.44 932.81C1320.99 931.414 1322.94 930.715 1325.29 930.715Z" fill="#00387A"/>
<path d="M1371.32 930.715C1373.64 930.715 1375.58 931.414 1377.12 932.81C1378.66 934.178 1379.43 935.939 1379.43 938.092C1379.43 940.245 1378.66 942.02 1377.12 943.417C1375.58 944.785 1373.64 945.469 1371.32 945.469C1368.96 945.469 1367.01 944.77 1365.47 943.374C1363.95 941.977 1363.2 940.216 1363.2 938.092C1363.2 935.968 1363.95 934.207 1365.47 932.81C1367.01 931.414 1368.96 930.715 1371.32 930.715Z" fill="#00387A"/>
<path d="M1417.34 930.715C1419.67 930.715 1421.6 931.414 1423.14 932.81C1424.69 934.178 1425.46 935.939 1425.46 938.092C1425.46 940.245 1424.69 942.02 1423.14 943.417C1421.6 944.785 1419.67 945.469 1417.34 945.469C1414.98 945.469 1413.03 944.77 1411.49 943.374C1409.98 941.977 1409.22 940.216 1409.22 938.092C1409.22 935.968 1409.98 934.207 1411.49 932.81C1413.03 931.414 1414.98 930.715 1417.34 930.715Z" fill="#00387A"/>
<path d="M1187.23 981.378C1189.55 981.378 1191.49 982.077 1193.03 983.473C1194.57 984.841 1195.34 986.601 1195.34 988.755C1195.34 990.908 1194.57 992.683 1193.03 994.08C1191.49 995.448 1189.55 996.132 1187.23 996.132C1184.87 996.132 1182.92 995.433 1181.38 994.036C1179.86 992.64 1179.11 990.879 1179.11 988.755C1179.11 986.631 1179.86 984.87 1181.38 983.473C1182.92 982.077 1184.87 981.378 1187.23 981.378Z" fill="#00387A"/>
<path d="M1233.25 981.378C1235.58 981.378 1237.51 982.077 1239.05 983.473C1240.6 984.841 1241.37 986.601 1241.37 988.755C1241.37 990.908 1240.6 992.683 1239.05 994.08C1237.51 995.448 1235.58 996.132 1233.25 996.132C1230.89 996.132 1228.94 995.433 1227.4 994.036C1225.89 992.64 1225.13 990.879 1225.13 988.755C1225.13 986.631 1225.89 984.87 1227.4 983.473C1228.94 982.077 1230.89 981.378 1233.25 981.378Z" fill="#00387A"/>
<path d="M1279.27 981.378C1281.6 981.378 1283.53 982.077 1285.08 983.473C1286.62 984.841 1287.39 986.601 1287.39 988.755C1287.39 990.908 1286.62 992.683 1285.08 994.08C1283.53 995.448 1281.6 996.132 1279.27 996.132C1276.91 996.132 1274.96 995.433 1273.42 994.036C1271.91 992.64 1271.15 990.879 1271.15 988.755C1271.15 986.631 1271.91 984.87 1273.42 983.473C1274.96 982.077 1276.91 981.378 1279.27 981.378Z" fill="#00387A"/>
<path d="M1325.29 981.378C1327.62 981.378 1329.56 982.077 1331.1 983.473C1332.64 984.841 1333.41 986.601 1333.41 988.755C1333.41 990.908 1332.64 992.683 1331.1 994.08C1329.56 995.448 1327.62 996.132 1325.29 996.132C1322.94 996.132 1320.99 995.433 1319.44 994.036C1317.93 992.64 1317.17 990.879 1317.17 988.755C1317.17 986.631 1317.93 984.87 1319.44 983.473C1320.99 982.077 1322.94 981.378 1325.29 981.378Z" fill="#00387A"/>
<path d="M1371.32 981.378C1373.64 981.378 1375.58 982.077 1377.12 983.473C1378.66 984.841 1379.43 986.601 1379.43 988.755C1379.43 990.908 1378.66 992.683 1377.12 994.08C1375.58 995.448 1373.64 996.132 1371.32 996.132C1368.96 996.132 1367.01 995.433 1365.47 994.036C1363.95 992.64 1363.2 990.879 1363.2 988.755C1363.2 986.631 1363.95 984.87 1365.47 983.473C1367.01 982.077 1368.96 981.378 1371.32 981.378Z" fill="#00387A"/>
<path d="M1417.34 981.378C1419.67 981.378 1421.6 982.077 1423.14 983.473C1424.69 984.841 1425.46 986.601 1425.46 988.755C1425.46 990.908 1424.69 992.683 1423.14 994.08C1421.6 995.448 1419.67 996.132 1417.34 996.132C1414.98 996.132 1413.03 995.433 1411.49 994.036C1409.98 992.64 1409.22 990.879 1409.22 988.755C1409.22 986.631 1409.98 984.87 1411.49 983.473C1413.03 982.077 1414.98 981.378 1417.34 981.378Z" fill="#00387A"/>
<path d="M1187.23 1032.04C1189.55 1032.04 1191.49 1032.74 1193.03 1034.14C1194.57 1035.5 1195.34 1037.26 1195.34 1039.42C1195.34 1041.57 1194.57 1043.35 1193.03 1044.74C1191.49 1046.11 1189.55 1046.79 1187.23 1046.79C1184.87 1046.79 1182.92 1046.1 1181.38 1044.7C1179.86 1043.3 1179.11 1041.54 1179.11 1039.42C1179.11 1037.29 1179.86 1035.53 1181.38 1034.14C1182.92 1032.74 1184.87 1032.04 1187.23 1032.04Z" fill="#00387A"/>
<path d="M1233.25 1032.04C1235.58 1032.04 1237.51 1032.74 1239.05 1034.14C1240.6 1035.5 1241.37 1037.26 1241.37 1039.42C1241.37 1041.57 1240.6 1043.35 1239.05 1044.74C1237.51 1046.11 1235.58 1046.79 1233.25 1046.79C1230.89 1046.79 1228.94 1046.1 1227.4 1044.7C1225.89 1043.3 1225.13 1041.54 1225.13 1039.42C1225.13 1037.29 1225.89 1035.53 1227.4 1034.14C1228.94 1032.74 1230.89 1032.04 1233.25 1032.04Z" fill="#00387A"/>
<path d="M1279.27 1032.04C1281.6 1032.04 1283.53 1032.74 1285.08 1034.14C1286.62 1035.5 1287.39 1037.26 1287.39 1039.42C1287.39 1041.57 1286.62 1043.35 1285.08 1044.74C1283.53 1046.11 1281.6 1046.79 1279.27 1046.79C1276.91 1046.79 1274.96 1046.1 1273.42 1044.7C1271.91 1043.3 1271.15 1041.54 1271.15 1039.42C1271.15 1037.29 1271.91 1035.53 1273.42 1034.14C1274.96 1032.74 1276.91 1032.04 1279.27 1032.04Z" fill="#00387A"/>
<path d="M1325.29 1032.04C1327.62 1032.04 1329.56 1032.74 1331.1 1034.14C1332.64 1035.5 1333.41 1037.26 1333.41 1039.42C1333.41 1041.57 1332.64 1043.35 1331.1 1044.74C1329.56 1046.11 1327.62 1046.79 1325.29 1046.79C1322.94 1046.79 1320.99 1046.1 1319.44 1044.7C1317.93 1043.3 1317.17 1041.54 1317.17 1039.42C1317.17 1037.29 1317.93 1035.53 1319.44 1034.14C1320.99 1032.74 1322.94 1032.04 1325.29 1032.04Z" fill="#00387A"/>
<path d="M1371.32 1032.04C1373.64 1032.04 1375.58 1032.74 1377.12 1034.14C1378.66 1035.5 1379.43 1037.26 1379.43 1039.42C1379.43 1041.57 1378.66 1043.35 1377.12 1044.74C1375.58 1046.11 1373.64 1046.79 1371.32 1046.79C1368.96 1046.79 1367.01 1046.1 1365.47 1044.7C1363.95 1043.3 1363.2 1041.54 1363.2 1039.42C1363.2 1037.29 1363.95 1035.53 1365.47 1034.14C1367.01 1032.74 1368.96 1032.04 1371.32 1032.04Z" fill="#00387A"/>
<path d="M1417.34 1032.04C1419.67 1032.04 1421.6 1032.74 1423.14 1034.14C1424.69 1035.5 1425.46 1037.26 1425.46 1039.42C1425.46 1041.57 1424.69 1043.35 1423.14 1044.74C1421.6 1046.11 1419.67 1046.79 1417.34 1046.79C1414.98 1046.79 1413.03 1046.1 1411.49 1044.7C1409.98 1043.3 1409.22 1041.54 1409.22 1039.42C1409.22 1037.29 1409.98 1035.53 1411.49 1034.14C1413.03 1032.74 1414.98 1032.04 1417.34 1032.04Z" fill="#00387A"/>
<path d="M1187.23 1082.7C1189.55 1082.7 1191.49 1083.4 1193.03 1084.8C1194.57 1086.17 1195.34 1087.93 1195.34 1090.08C1195.34 1092.23 1194.57 1094.01 1193.03 1095.41C1191.49 1096.77 1189.55 1097.46 1187.23 1097.46C1184.87 1097.46 1182.92 1096.76 1181.38 1095.36C1179.86 1093.97 1179.11 1092.2 1179.11 1090.08C1179.11 1087.96 1179.86 1086.2 1181.38 1084.8C1182.92 1083.4 1184.87 1082.7 1187.23 1082.7Z" fill="#00387A"/>
<path d="M1233.25 1082.7C1235.58 1082.7 1237.51 1083.4 1239.05 1084.8C1240.6 1086.17 1241.37 1087.93 1241.37 1090.08C1241.37 1092.23 1240.6 1094.01 1239.05 1095.41C1237.51 1096.77 1235.58 1097.46 1233.25 1097.46C1230.89 1097.46 1228.94 1096.76 1227.4 1095.36C1225.89 1093.97 1225.13 1092.2 1225.13 1090.08C1225.13 1087.96 1225.89 1086.2 1227.4 1084.8C1228.94 1083.4 1230.89 1082.7 1233.25 1082.7Z" fill="#00387A"/>
<path d="M1279.27 1082.7C1281.6 1082.7 1283.53 1083.4 1285.08 1084.8C1286.62 1086.17 1287.39 1087.93 1287.39 1090.08C1287.39 1092.23 1286.62 1094.01 1285.08 1095.41C1283.53 1096.77 1281.6 1097.46 1279.27 1097.46C1276.91 1097.46 1274.96 1096.76 1273.42 1095.36C1271.91 1093.97 1271.15 1092.2 1271.15 1090.08C1271.15 1087.96 1271.91 1086.2 1273.42 1084.8C1274.96 1083.4 1276.91 1082.7 1279.27 1082.7Z" fill="#00387A"/>
<path d="M1325.29 1082.7C1327.62 1082.7 1329.56 1083.4 1331.1 1084.8C1332.64 1086.17 1333.41 1087.93 1333.41 1090.08C1333.41 1092.23 1332.64 1094.01 1331.1 1095.41C1329.56 1096.77 1327.62 1097.46 1325.29 1097.46C1322.94 1097.46 1320.99 1096.76 1319.44 1095.36C1317.93 1093.97 1317.17 1092.2 1317.17 1090.08C1317.17 1087.96 1317.93 1086.2 1319.44 1084.8C1320.99 1083.4 1322.94 1082.7 1325.29 1082.7Z" fill="#00387A"/>
<path d="M1371.32 1082.7C1373.64 1082.7 1375.58 1083.4 1377.12 1084.8C1378.66 1086.17 1379.43 1087.93 1379.43 1090.08C1379.43 1092.23 1378.66 1094.01 1377.12 1095.41C1375.58 1096.77 1373.64 1097.46 1371.32 1097.46C1368.96 1097.46 1367.01 1096.76 1365.47 1095.36C1363.95 1093.97 1363.2 1092.2 1363.2 1090.08C1363.2 1087.96 1363.95 1086.2 1365.47 1084.8C1367.01 1083.4 1368.96 1082.7 1371.32 1082.7Z" fill="#00387A"/>
<path d="M1417.34 1082.7C1419.67 1082.7 1421.6 1083.4 1423.14 1084.8C1424.69 1086.17 1425.46 1087.93 1425.46 1090.08C1425.46 1092.23 1424.69 1094.01 1423.14 1095.41C1421.6 1096.77 1419.67 1097.46 1417.34 1097.46C1414.98 1097.46 1413.03 1096.76 1411.49 1095.36C1409.98 1093.97 1409.22 1092.2 1409.22 1090.08C1409.22 1087.96 1409.98 1086.2 1411.49 1084.8C1413.03 1083.4 1414.98 1082.7 1417.34 1082.7Z" fill="#00387A"/>
<path d="M1187.23 1133.37C1189.55 1133.37 1191.49 1134.07 1193.03 1135.46C1194.57 1136.83 1195.34 1138.59 1195.34 1140.74C1195.34 1142.9 1194.57 1144.67 1193.03 1146.07C1191.49 1147.44 1189.55 1148.12 1187.23 1148.12C1184.87 1148.12 1182.92 1147.42 1181.38 1146.02C1179.86 1144.63 1179.11 1142.87 1179.11 1140.74C1179.11 1138.62 1179.86 1136.86 1181.38 1135.46C1182.92 1134.07 1184.87 1133.37 1187.23 1133.37Z" fill="#00387A"/>
<path d="M1233.25 1133.37C1235.58 1133.37 1237.51 1134.07 1239.05 1135.46C1240.6 1136.83 1241.37 1138.59 1241.37 1140.74C1241.37 1142.9 1240.6 1144.67 1239.05 1146.07C1237.51 1147.44 1235.58 1148.12 1233.25 1148.12C1230.89 1148.12 1228.94 1147.42 1227.4 1146.02C1225.89 1144.63 1225.13 1142.87 1225.13 1140.74C1225.13 1138.62 1225.89 1136.86 1227.4 1135.46C1228.94 1134.07 1230.89 1133.37 1233.25 1133.37Z" fill="#00387A"/>
<path d="M1279.27 1133.37C1281.6 1133.37 1283.53 1134.07 1285.08 1135.46C1286.62 1136.83 1287.39 1138.59 1287.39 1140.74C1287.39 1142.9 1286.62 1144.67 1285.08 1146.07C1283.53 1147.44 1281.6 1148.12 1279.27 1148.12C1276.91 1148.12 1274.96 1147.42 1273.42 1146.02C1271.91 1144.63 1271.15 1142.87 1271.15 1140.74C1271.15 1138.62 1271.91 1136.86 1273.42 1135.46C1274.96 1134.07 1276.91 1133.37 1279.27 1133.37Z" fill="#00387A"/>
<path d="M1325.29 1133.37C1327.62 1133.37 1329.56 1134.07 1331.1 1135.46C1332.64 1136.83 1333.41 1138.59 1333.41 1140.74C1333.41 1142.9 1332.64 1144.67 1331.1 1146.07C1329.56 1147.44 1327.62 1148.12 1325.29 1148.12C1322.94 1148.12 1320.99 1147.42 1319.44 1146.02C1317.93 1144.63 1317.17 1142.87 1317.17 1140.74C1317.17 1138.62 1317.93 1136.86 1319.44 1135.46C1320.99 1134.07 1322.94 1133.37 1325.29 1133.37Z" fill="#00387A"/>
<path d="M1371.32 1133.37C1373.64 1133.37 1375.58 1134.07 1377.12 1135.46C1378.66 1136.83 1379.43 1138.59 1379.43 1140.74C1379.43 1142.9 1378.66 1144.67 1377.12 1146.07C1375.58 1147.44 1373.64 1148.12 1371.32 1148.12C1368.96 1148.12 1367.01 1147.42 1365.47 1146.02C1363.95 1144.63 1363.2 1142.87 1363.2 1140.74C1363.2 1138.62 1363.95 1136.86 1365.47 1135.46C1367.01 1134.07 1368.96 1133.37 1371.32 1133.37Z" fill="#00387A"/>
<path d="M1417.34 1133.37C1419.67 1133.37 1421.6 1134.07 1423.14 1135.46C1424.69 1136.83 1425.46 1138.59 1425.46 1140.74C1425.46 1142.9 1424.69 1144.67 1423.14 1146.07C1421.6 1147.44 1419.67 1148.12 1417.34 1148.12C1414.98 1148.12 1413.03 1147.42 1411.49 1146.02C1409.98 1144.63 1409.22 1142.87 1409.22 1140.74C1409.22 1138.62 1409.98 1136.86 1411.49 1135.46C1413.03 1134.07 1414.98 1133.37 1417.34 1133.37Z" fill="#00387A"/>
<path d="M1187.23 1184.03C1189.55 1184.03 1191.49 1184.73 1193.03 1186.12C1194.57 1187.49 1195.34 1189.25 1195.34 1191.41C1195.34 1193.56 1194.57 1195.33 1193.03 1196.73C1191.49 1198.1 1189.55 1198.78 1187.23 1198.78C1184.87 1198.78 1182.92 1198.08 1181.38 1196.69C1179.86 1195.29 1179.11 1193.53 1179.11 1191.41C1179.11 1189.28 1179.86 1187.52 1181.38 1186.12C1182.92 1184.73 1184.87 1184.03 1187.23 1184.03Z" fill="#00387A"/>
<path d="M1233.25 1184.03C1235.58 1184.03 1237.51 1184.73 1239.05 1186.12C1240.6 1187.49 1241.37 1189.25 1241.37 1191.41C1241.37 1193.56 1240.6 1195.33 1239.05 1196.73C1237.51 1198.1 1235.58 1198.78 1233.25 1198.78C1230.89 1198.78 1228.94 1198.08 1227.4 1196.69C1225.89 1195.29 1225.13 1193.53 1225.13 1191.41C1225.13 1189.28 1225.89 1187.52 1227.4 1186.12C1228.94 1184.73 1230.89 1184.03 1233.25 1184.03Z" fill="#00387A"/>
<path d="M1279.27 1184.03C1281.6 1184.03 1283.53 1184.73 1285.08 1186.12C1286.62 1187.49 1287.39 1189.25 1287.39 1191.41C1287.39 1193.56 1286.62 1195.33 1285.08 1196.73C1283.53 1198.1 1281.6 1198.78 1279.27 1198.78C1276.91 1198.78 1274.96 1198.08 1273.42 1196.69C1271.91 1195.29 1271.15 1193.53 1271.15 1191.41C1271.15 1189.28 1271.91 1187.52 1273.42 1186.12C1274.96 1184.73 1276.91 1184.03 1279.27 1184.03Z" fill="#00387A"/>
<path d="M1325.29 1184.03C1327.62 1184.03 1329.56 1184.73 1331.1 1186.12C1332.64 1187.49 1333.41 1189.25 1333.41 1191.41C1333.41 1193.56 1332.64 1195.33 1331.1 1196.73C1329.56 1198.1 1327.62 1198.78 1325.29 1198.78C1322.94 1198.78 1320.99 1198.08 1319.44 1196.69C1317.93 1195.29 1317.17 1193.53 1317.17 1191.41C1317.17 1189.28 1317.93 1187.52 1319.44 1186.12C1320.99 1184.73 1322.94 1184.03 1325.29 1184.03Z" fill="#00387A"/>
<path d="M1371.32 1184.03C1373.64 1184.03 1375.58 1184.73 1377.12 1186.12C1378.66 1187.49 1379.43 1189.25 1379.43 1191.41C1379.43 1193.56 1378.66 1195.33 1377.12 1196.73C1375.58 1198.1 1373.64 1198.78 1371.32 1198.78C1368.96 1198.78 1367.01 1198.08 1365.47 1196.69C1363.95 1195.29 1363.2 1193.53 1363.2 1191.41C1363.2 1189.28 1363.95 1187.52 1365.47 1186.12C1367.01 1184.73 1368.96 1184.03 1371.32 1184.03Z" fill="#00387A"/>
<path d="M1417.34 1184.03C1419.67 1184.03 1421.6 1184.73 1423.14 1186.12C1424.69 1187.49 1425.46 1189.25 1425.46 1191.41C1425.46 1193.56 1424.69 1195.33 1423.14 1196.73C1421.6 1198.1 1419.67 1198.78 1417.34 1198.78C1414.98 1198.78 1413.03 1198.08 1411.49 1196.69C1409.98 1195.29 1409.22 1193.53 1409.22 1191.41C1409.22 1189.28 1409.98 1187.52 1411.49 1186.12C1413.03 1184.73 1414.98 1184.03 1417.34 1184.03Z" fill="#00387A"/>
<path d="M1187.23 1234.69C1189.55 1234.69 1191.49 1235.39 1193.03 1236.79C1194.57 1238.16 1195.34 1239.92 1195.34 1242.07C1195.34 1244.22 1194.57 1246 1193.03 1247.39C1191.49 1248.76 1189.55 1249.45 1187.23 1249.45C1184.87 1249.45 1182.92 1248.75 1181.38 1247.35C1179.86 1245.95 1179.11 1244.19 1179.11 1242.07C1179.11 1239.94 1179.86 1238.18 1181.38 1236.79C1182.92 1235.39 1184.87 1234.69 1187.23 1234.69Z" fill="#00387A"/>
<path d="M1233.25 1234.69C1235.58 1234.69 1237.51 1235.39 1239.05 1236.79C1240.6 1238.16 1241.37 1239.92 1241.37 1242.07C1241.37 1244.22 1240.6 1246 1239.05 1247.39C1237.51 1248.76 1235.58 1249.45 1233.25 1249.45C1230.89 1249.45 1228.94 1248.75 1227.4 1247.35C1225.89 1245.95 1225.13 1244.19 1225.13 1242.07C1225.13 1239.94 1225.89 1238.18 1227.4 1236.79C1228.94 1235.39 1230.89 1234.69 1233.25 1234.69Z" fill="#00387A"/>
<path d="M1279.27 1234.69C1281.6 1234.69 1283.53 1235.39 1285.08 1236.79C1286.62 1238.16 1287.39 1239.92 1287.39 1242.07C1287.39 1244.22 1286.62 1246 1285.08 1247.39C1283.53 1248.76 1281.6 1249.45 1279.27 1249.45C1276.91 1249.45 1274.96 1248.75 1273.42 1247.35C1271.91 1245.95 1271.15 1244.19 1271.15 1242.07C1271.15 1239.94 1271.91 1238.18 1273.42 1236.79C1274.96 1235.39 1276.91 1234.69 1279.27 1234.69Z" fill="#00387A"/>
<path d="M1325.29 1234.69C1327.62 1234.69 1329.56 1235.39 1331.1 1236.79C1332.64 1238.16 1333.41 1239.92 1333.41 1242.07C1333.41 1244.22 1332.64 1246 1331.1 1247.39C1329.56 1248.76 1327.62 1249.45 1325.29 1249.45C1322.94 1249.45 1320.99 1248.75 1319.44 1247.35C1317.93 1245.95 1317.17 1244.19 1317.17 1242.07C1317.17 1239.94 1317.93 1238.18 1319.44 1236.79C1320.99 1235.39 1322.94 1234.69 1325.29 1234.69Z" fill="#00387A"/>
<path d="M1371.32 1234.69C1373.64 1234.69 1375.58 1235.39 1377.12 1236.79C1378.66 1238.16 1379.43 1239.92 1379.43 1242.07C1379.43 1244.22 1378.66 1246 1377.12 1247.39C1375.58 1248.76 1373.64 1249.45 1371.32 1249.45C1368.96 1249.45 1367.01 1248.75 1365.47 1247.35C1363.95 1245.95 1363.2 1244.19 1363.2 1242.07C1363.2 1239.94 1363.95 1238.18 1365.47 1236.79C1367.01 1235.39 1368.96 1234.69 1371.32 1234.69Z" fill="#00387A"/>
<path d="M1417.34 1234.69C1419.67 1234.69 1421.6 1235.39 1423.14 1236.79C1424.69 1238.16 1425.46 1239.92 1425.46 1242.07C1425.46 1244.22 1424.69 1246 1423.14 1247.39C1421.6 1248.76 1419.67 1249.45 1417.34 1249.45C1414.98 1249.45 1413.03 1248.75 1411.49 1247.35C1409.98 1245.95 1409.22 1244.19 1409.22 1242.07C1409.22 1239.94 1409.98 1238.18 1411.49 1236.79C1413.03 1235.39 1414.98 1234.69 1417.34 1234.69Z" fill="#00387A"/>
<rect x="1081" y="1112" width="442" height="329" fill="white"/>
<path d="M159.072 917.314C157.08 909.879 147.785 907.388 142.342 912.831L-141.168 1196.34C-146.612 1201.78 -144.121 1211.08 -136.686 1213.07L250.596 1316.84C258.032 1318.84 264.836 1312.03 262.844 1304.6L159.072 917.314Z" stroke="#FC974E" stroke-width="20"/>
<rect x="-7.36361" y="12.0738" width="150.756" height="150.147" rx="10" transform="matrix(-0.971872 0.235511 0.235511 0.971872 273.654 1069.96)" stroke="#274F93" stroke-width="20"/>
<circle cx="1317.5" cy="1783.5" r="269.5" stroke="#D4E5FB" stroke-width="20"/>
<rect x="-14.1326" y="0.518802" width="150.756" height="150.147" rx="10" transform="matrix(-0.732571 -0.680691 -0.680691 0.732571 1476.78 1535.75)" stroke="#FFBC39" stroke-width="20"/>
</g>
<defs>
<clipPath id="clip0">
<rect width="1440" height="1800" fill="white"/>
</clipPath>
</defs>
</svg>
